<?xml version="1.0" standalone="no"?>
<!DOCTYPE svg PUBLIC "-//W3C//DTD SVG 20010904//EN"
 "http://www.w3.org/TR/2001/REC-SVG-20010904/DTD/svg10.dtd">
<svg version="1.0" xmlns="http://www.w3.org/2000/svg"
 width="231.000000pt" height="231.000000pt" viewBox="0 0 231.000000 231.000000"
 preserveAspectRatio="xMidYMid meet">
<metadata>
Created by potrace 1.14, written by Peter Selinger 2001-2017
</metadata>
<g transform="translate(0.000000,231.000000) scale(0.100000,-0.100000)"
fill="#000000" stroke="none">
<path d="M0 1155 l0 -1155 430 0 430 0 4 23 c5 20 12 145 36 577 5 91 14 206
20 255 5 50 10 111 10 138 0 50 5 55 36 32 44 -33 119 -8 112 39 -3 19 -12 22
-83 28 -44 4 -110 5 -147 2 l-68 -6 0 99 c0 108 -10 137 -46 127 -16 -4 -19
-11 -16 -35 3 -24 1 -28 -12 -23 -14 6 -16 -12 -16 -170 0 -115 -4 -176 -10
-176 -7 0 -8 59 -4 183 l7 184 -24 16 c-13 10 -31 17 -41 17 -16 0 -18 -12
-19 -112 -1 -126 -4 -125 -16 7 l-8 90 -6 -95 c-3 -61 -6 -5 -7 158 -2 213 0
252 12 252 15 0 24 -51 29 -165 2 -55 4 -61 30 -73 16 -8 31 -12 33 -9 2 2 7
90 11 196 4 130 10 190 17 188 7 -2 10 -61 7 -185 -1 -100 1 -182 5 -182 5 0
39 16 76 34 36 19 101 41 145 51 43 9 92 20 108 24 l30 7 5 364 c5 363 5 365
26 368 13 2 24 -4 28 -13 4 -13 1 -15 -14 -10 -16 5 -20 2 -20 -17 -3 -155 2
-703 6 -707 3 -3 8 0 13 7 5 9 27 9 96 -2 95 -14 147 -32 196 -67 l30 -21 -2
158 c0 86 -4 167 -8 178 -10 25 -4 46 12 46 9 0 11 -50 8 -189 l-3 -189 31
-16 c30 -16 31 -16 37 10 4 15 4 80 1 144 -6 117 -2 160 14 160 4 0 7 -80 6
-177 l-3 -178 -32 -3 c-18 -2 -30 -7 -27 -12 3 -4 -2 -10 -9 -13 -10 -4 -18 5
-26 28 -14 43 -68 91 -117 104 -21 6 -108 10 -193 10 -133 0 -164 -3 -215 -21
-73 -26 -85 -34 -85 -62 0 -17 -2 -18 -10 -6 -9 13 -11 13 -20 0 -5 -8 -8 -21
-5 -28 3 -8 6 -57 7 -110 1 -77 2 -88 8 -52 l7 45 1 -47 2 -48 45 0 c44 0 46
2 90 63 25 34 59 79 75 99 17 20 30 39 30 42 0 3 -39 7 -87 8 -58 2 -88 7 -91
16 -3 9 22 12 102 12 89 0 107 3 115 18 9 15 12 15 20 2 8 -11 37 -16 116 -20
127 -6 140 -24 20 -28 -47 -1 -85 -6 -85 -10 0 -5 16 -24 36 -43 20 -18 45
-47 56 -64 12 -16 -11 1 -50 40 -88 86 -108 90 -160 33 -20 -22 -59 -70 -85
-107 l-49 -66 78 -3 c42 -2 83 -1 90 2 9 3 14 30 17 78 l3 73 2 -84 c2 -66 5
-82 14 -73 17 17 218 16 243 -1 15 -12 2 -15 -101 -21 -65 -4 -120 -9 -122
-11 -12 -12 -2 -58 14 -70 26 -20 51 -18 103 5 24 11 45 19 47 17 2 -1 6 -52
10 -112 4 -61 11 -118 16 -127 11 -22 0 -68 -17 -68 -20 0 -25 -24 -25 -111 0
-72 2 -79 20 -79 18 0 20 7 22 93 l1 92 8 -85 c4 -47 7 -134 6 -195 l0 -110
-6 83 c-4 58 -11 86 -21 92 -29 18 -40 -18 -40 -131 0 -125 4 -139 36 -139 24
0 27 7 37 70 3 14 5 0 7 -30 1 -30 5 -104 9 -165 l6 -110 473 -3 472 -2 0
1155 0 1155 -1155 0 -1155 0 0 -1155z m1629 -59 c-9 -8 -10 -6 -5 8 3 10 2 24
-3 30 -6 7 -11 45 -13 85 -3 73 -4 74 -39 97 -22 14 -36 18 -38 11 -9 -53 -17
-364 -10 -371 5 -6 9 -16 9 -24 0 -12 -3 -12 -15 -2 -12 10 -15 45 -15 194 0
128 -4 186 -12 194 -9 9 -8 12 8 12 11 0 25 5 31 11 9 9 19 6 41 -9 16 -12 32
-19 36 -15 3 3 6 63 6 133 0 87 4 130 13 139 10 10 13 -37 15 -235 2 -179 -1
-251 -9 -258z m-1116 210 c2 -55 -1 -85 -8 -83 -10 4 -18 141 -10 166 11 28
16 1 18 -83z m897 -96 c0 -91 -3 -120 -13 -120 -10 0 -12 25 -9 108 2 59 5
113 7 120 11 32 15 2 15 -108z m-593 58 c-3 -8 -6 -5 -6 6 -1 11 2 17 5 13 3
-3 4 -12 1 -19z"/>
<path d="M1104 965 c1 -55 5 -70 33 -109 36 -51 61 -58 93 -26 14 14 20 33 20
65 0 43 -2 45 -27 45 -16 -1 -39 -7 -53 -15 -31 -18 -36 -18 -38 -2 -1 6 -5
31 -8 55 -9 65 -20 58 -20 -13z"/>
<path d="M960 880 c0 -38 4 -70 8 -70 15 0 92 71 92 85 0 16 -60 55 -84 55
-13 0 -16 -12 -16 -70z"/>
<path d="M1020 824 c-80 -74 -73 -79 95 -74 79 2 104 8 75 18 -8 2 -36 26 -61
53 -26 27 -50 49 -53 49 -4 0 -29 -21 -56 -46z"/>
<path d="M985 712 c-26 -17 -58 -172 -37 -172 12 0 76 70 109 121 l31 47 -37
6 c-46 7 -54 7 -66 -2z"/>
<path d="M1186 699 c-20 -16 -25 -26 -20 -47 6 -26 5 -26 -15 6 -11 17 -26 32
-32 32 -13 0 -148 -140 -149 -152 0 -5 52 -8 115 -8 96 0 115 3 115 15 0 13 3
13 20 3 31 -20 37 0 27 92 -11 87 -17 93 -61 59z"/>
<path d="M940 516 c-1 0 -3 -65 -6 -144 l-6 -143 166 1 166 2 0 133 0 133 -27
7 c-22 5 -291 16 -293 11z m229 -166 l26 -35 -47 40 c-26 22 -60 50 -77 63
-17 13 -31 28 -31 33 0 16 100 -63 129 -101z m-96 28 c-7 -16 -123 -123 -123
-115 0 6 121 126 127 127 1 0 0 -6 -4 -12z m146 -102 c-3 -3 -11 5 -18 17 -13
21 -12 21 5 5 10 -10 16 -20 13 -22z"/>
<path d="M908 374 c-5 -4 -7 -46 -7 -93 l2 -86 9 70 c9 75 8 122 -4 109z"/>
<path d="M1225 210 c-11 -5 -78 -9 -148 -9 l-129 -1 6 -27 c4 -17 0 -40 -9
-57 -8 -15 -15 -48 -15 -72 l0 -44 143 0 142 1 -40 36 c-22 19 -56 46 -75 59
-50 33 -117 93 -104 94 6 0 31 -13 55 -30 24 -16 50 -30 57 -30 7 0 11 -4 8
-9 -3 -4 0 -15 7 -23 21 -25 114 -98 126 -98 7 0 11 36 11 110 0 61 -3 110 -7
109 -5 0 -17 -4 -28 -9z"/>
<path d="M1286 195 c-3 -9 -6 -57 -6 -106 0 -65 3 -89 13 -89 32 1 38 18 40
111 2 89 1 94 -19 97 -13 2 -24 -4 -28 -13z"/>
<path d="M893 40 c0 -25 2 -35 4 -22 2 12 2 32 0 45 -2 12 -4 2 -4 -23z"/>
</g>
</svg>
